<svg id="svg" version="1.1" width="400" height="435.036496350365" viewBox="0 0 400 435.036496350365" xmlns="http://www.w3.org/2000/svg" xmlns:xlink="http://www.w3.org/1999/xlink"><g id="svgg"><path id="path0" d="M205.716 24.400 C 205.939 25.252,205.060 25.545,204.586 24.777 C 204.442 24.544,203.846 24.452,203.262 24.572 C 202.089 24.815,194.369 25.636,191.708 25.801 C 188.775 25.984,186.434 26.430,185.298 27.022 C 184.694 27.337,183.930 27.603,183.600 27.612 C 183.270 27.621,182.583 27.860,182.073 28.143 C 180.718 28.895,181.825 29.799,183.377 29.209 C 185.228 28.505,185.452 28.788,184.015 30.016 C 183.253 30.667,182.490 31.200,182.318 31.200 C 182.025 31.200,178.828 33.179,170.731 38.374 C 168.823 39.598,166.483 41.075,165.531 41.655 C 164.579 42.235,161.730 44.009,159.200 45.596 C 156.670 47.183,153.753 48.912,152.718 49.438 C 151.683 49.965,149.200 51.387,147.200 52.600 C 145.200 53.813,142.717 55.265,141.682 55.827 C 140.647 56.389,139.080 57.254,138.200 57.750 C 134.049 60.085,134.490 59.108,138.911 56.174 C 140.500 55.120,142.391 53.749,143.114 53.128 C 143.837 52.508,144.624 52.000,144.863 52.000 C 145.264 52.000,150.343 48.573,150.800 47.995 C 150.910 47.856,151.312 47.627,151.693 47.486 C 152.561 47.166,152.189 46.000,151.219 46.000 C 150.837 46.000,150.198 46.360,149.800 46.800 C 149.402 47.240,148.912 47.600,148.711 47.600 C 148.047 47.600,145.636 49.658,145.389 50.436 C 145.254 50.861,144.782 51.200,144.325 51.200 C 143.523 51.200,139.788 53.269,137.400 55.036 C 136.740 55.525,134.130 57.123,131.600 58.589 C 129.070 60.054,126.640 61.581,126.200 61.981 C 125.760 62.382,124.590 63.116,123.600 63.613 C 122.610 64.109,120.540 65.279,119.000 66.211 C 117.460 67.144,113.140 69.480,109.400 71.403 C 105.660 73.327,101.430 75.533,100.000 76.307 C 98.570 77.080,95.960 78.465,94.200 79.384 C 92.440 80.304,90.190 81.569,89.200 82.196 C 88.210 82.823,86.410 83.875,85.200 84.534 C 83.990 85.192,81.974 86.376,80.720 87.165 C 79.466 87.954,77.457 89.198,76.256 89.928 C 75.055 90.659,73.758 91.604,73.374 92.028 C 72.990 92.453,72.504 92.800,72.294 92.800 C 72.083 92.800,71.076 93.488,70.056 94.330 C 67.445 96.482,53.655 105.644,52.300 106.126 C 51.915 106.263,51.600 106.537,51.600 106.734 C 51.600 106.932,50.295 107.959,48.700 109.018 C 47.105 110.076,45.080 111.565,44.200 112.326 C 38.924 116.891,37.850 117.985,36.966 119.700 C 36.151 121.280,35.798 121.600,34.868 121.600 C 33.619 121.600,31.335 123.647,31.780 124.367 C 32.132 124.937,33.025 124.916,33.987 124.315 C 35.207 123.553,35.319 124.112,34.615 127.469 C 34.254 129.191,33.884 132.670,33.793 135.200 C 33.701 137.730,33.527 141.600,33.405 143.800 C 33.284 146.000,33.099 149.870,32.994 152.400 C 32.889 154.930,32.661 158.190,32.487 159.644 C 32.313 161.099,32.322 164.249,32.508 166.644 C 32.695 169.040,32.734 171.720,32.595 172.600 C 31.530 179.378,31.023 199.735,31.077 233.464 C 31.118 258.550,31.258 262.894,32.435 275.600 C 33.016 281.865,33.056 283.584,32.747 288.800 C 32.335 295.762,33.420 303.906,35.391 308.643 C 36.205 310.599,37.407 313.640,38.063 315.400 C 40.041 320.712,40.706 321.794,42.541 322.693 C 43.453 323.140,45.038 324.246,46.061 325.153 C 47.085 326.059,48.086 326.800,48.286 326.800 C 48.900 326.800,51.611 328.308,55.800 330.979 C 58.000 332.381,62.590 335.191,66.000 337.221 C 69.410 339.252,72.688 341.248,73.284 341.657 C 73.880 342.066,74.485 342.400,74.629 342.400 C 74.896 342.400,79.244 345.306,86.922 350.616 C 91.444 353.743,100.281 359.209,104.912 361.743 C 109.215 364.098,110.374 364.753,114.200 366.992 C 116.180 368.151,121.400 370.839,125.800 372.965 C 130.200 375.092,134.160 377.042,134.600 377.300 C 135.649 377.915,144.336 382.502,147.400 384.058 C 148.720 384.729,150.163 385.485,150.607 385.739 C 151.051 385.993,153.931 387.624,157.007 389.364 C 160.083 391.104,164.310 393.554,166.400 394.807 C 184.185 405.474,194.341 410.411,195.876 409.137 C 196.636 408.506,199.652 409.514,199.906 410.484 C 200.123 411.314,200.643 411.423,200.935 410.700 C 201.048 410.420,201.151 410.531,201.168 410.953 C 201.228 412.370,202.822 414.454,203.746 414.322 C 204.812 414.170,205.165 412.436,204.236 411.916 C 203.376 411.435,203.435 410.906,204.382 410.606 C 204.825 410.465,205.600 410.644,206.173 411.019 C 208.015 412.226,211.115 410.744,224.849 402.088 C 226.692 400.926,228.920 399.779,229.800 399.540 C 230.680 399.300,232.533 398.585,233.918 397.952 C 235.303 397.318,236.549 396.800,236.686 396.800 C 236.824 396.800,237.221 396.567,237.569 396.281 C 237.916 395.996,239.640 395.157,241.400 394.416 C 243.160 393.675,244.884 392.828,245.231 392.534 C 245.579 392.240,245.996 392.000,246.159 392.000 C 246.322 392.000,247.241 391.460,248.200 390.800 C 249.159 390.140,250.096 389.600,250.281 389.600 C 250.467 389.600,251.575 388.970,252.744 388.200 C 253.913 387.430,254.963 386.800,255.077 386.800 C 255.191 386.800,255.941 386.305,256.742 385.700 C 257.544 385.095,258.830 384.257,259.600 383.839 C 260.370 383.420,261.774 382.565,262.720 381.939 C 263.666 381.312,264.520 380.800,264.617 380.800 C 264.714 380.800,265.644 380.151,266.683 379.357 C 267.723 378.563,268.985 377.758,269.487 377.567 C 269.989 377.376,270.400 376.945,270.400 376.610 C 270.400 376.274,270.715 375.999,271.100 375.997 C 271.485 375.996,272.340 375.625,273.000 375.174 C 273.660 374.722,274.605 374.188,275.100 373.986 C 275.595 373.785,276.000 373.454,276.000 373.250 C 276.000 373.047,276.765 372.484,277.700 371.999 C 278.635 371.514,279.544 370.865,279.720 370.558 C 279.896 370.251,280.219 370.000,280.439 370.000 C 280.659 370.000,281.803 369.383,282.983 368.628 C 284.162 367.874,290.409 364.596,296.864 361.344 C 307.936 355.766,320.234 349.025,321.631 347.768 C 321.979 347.456,322.362 347.200,322.483 347.200 C 322.888 347.200,327.703 344.147,332.400 340.913 C 334.107 339.737,339.330 335.535,340.800 334.154 C 342.253 332.788,344.475 331.511,351.600 327.945 C 355.847 325.820,361.600 320.956,361.600 319.490 C 361.600 319.173,362.336 318.077,363.235 317.055 C 364.845 315.226,365.703 314.921,365.340 316.306 C 365.239 316.694,365.327 317.459,365.537 318.006 L 365.918 319.000 366.359 317.873 C 366.602 317.254,367.065 315.480,367.387 313.932 C 367.802 311.944,368.283 310.808,369.024 310.067 C 370.711 308.380,371.417 306.594,371.244 304.451 C 371.209 304.016,371.079 304.002,370.618 304.385 C 369.618 305.215,369.340 304.534,369.693 302.124 C 370.104 299.319,370.083 300.247,369.986 289.000 C 369.943 283.940,370.140 273.500,370.425 265.800 C 370.709 258.100,370.965 241.810,370.993 229.600 C 371.021 217.390,371.061 202.360,371.083 196.200 C 371.104 190.040,371.073 183.560,371.012 181.800 C 370.751 174.207,370.334 166.218,370.188 165.981 C 370.101 165.840,369.929 163.582,369.806 160.962 C 369.683 158.343,369.492 154.310,369.381 152.000 C 369.271 149.690,369.036 143.558,368.859 138.373 C 368.682 133.188,368.426 128.766,368.291 128.546 C 368.155 128.327,367.586 126.121,367.027 123.643 C 366.441 121.044,365.635 118.601,365.123 117.869 C 362.978 114.801,361.226 113.043,358.800 111.526 C 357.370 110.632,355.840 109.584,355.400 109.197 C 354.960 108.811,352.170 107.096,349.200 105.386 C 346.230 103.677,342.672 101.451,341.293 100.439 C 339.915 99.428,337.906 97.970,336.830 97.200 C 335.754 96.430,333.372 94.706,331.537 93.369 C 328.810 91.383,322.094 86.744,316.800 83.190 C 311.674 79.748,303.724 74.800,303.321 74.800 C 303.212 74.800,302.618 74.440,301.999 74.000 C 300.764 73.120,297.229 71.074,293.200 68.907 C 291.770 68.138,286.335 65.144,281.123 62.254 C 275.911 59.364,270.781 56.541,269.723 55.980 C 260.894 51.298,256.763 49.143,250.000 45.692 C 227.612 34.267,223.424 32.041,221.600 30.599 C 221.270 30.338,219.691 29.712,218.091 29.209 C 216.491 28.706,215.083 28.135,214.964 27.941 C 214.631 27.402,211.656 25.930,209.200 25.089 C 207.990 24.675,206.829 24.171,206.620 23.968 C 205.969 23.338,205.497 23.563,205.716 24.400 M178.000 29.670 C 177.230 29.889,176.330 30.307,176.000 30.598 C 175.670 30.890,174.320 31.616,173.000 32.212 C 169.691 33.706,165.973 36.032,166.229 36.447 C 166.346 36.636,166.196 36.697,165.896 36.581 C 165.595 36.466,165.018 36.738,164.613 37.186 C 164.208 37.634,163.631 38.000,163.332 38.000 C 162.805 38.000,158.705 40.524,157.711 41.461 C 157.441 41.714,156.586 42.314,155.811 42.793 C 155.035 43.273,154.400 43.831,154.400 44.033 C 154.400 44.235,154.164 44.400,153.876 44.400 C 152.636 44.400,151.925 45.361,152.773 45.891 C 153.436 46.305,153.737 46.240,154.680 45.481 C 155.296 44.985,156.309 44.322,156.931 44.006 C 157.553 43.690,158.234 43.110,158.445 42.716 C 158.656 42.322,159.050 42.000,159.321 42.000 C 159.592 42.000,161.610 40.813,163.807 39.362 C 166.003 37.912,168.295 36.544,168.900 36.323 C 169.505 36.102,170.000 35.771,170.000 35.588 C 170.000 35.404,170.328 35.150,170.729 35.022 C 171.131 34.895,171.888 34.391,172.413 33.902 C 172.937 33.414,173.554 32.992,173.783 32.965 C 175.344 32.779,180.076 30.411,180.305 29.700 C 180.492 29.122,179.954 29.115,178.000 29.670 M203.600 31.945 C 213.992 34.179,218.623 36.008,225.894 40.748 C 228.299 42.317,230.381 43.600,230.520 43.600 C 230.916 43.600,237.784 48.120,237.933 48.479 C 238.007 48.656,238.343 48.800,238.680 48.800 C 239.017 48.800,240.127 49.400,241.146 50.133 C 243.840 52.070,249.746 55.600,250.292 55.600 C 250.550 55.600,250.904 55.848,251.080 56.151 C 251.436 56.763,259.006 61.878,261.200 62.988 C 261.970 63.378,262.870 63.931,263.200 64.217 C 263.530 64.503,264.050 64.796,264.356 64.868 C 264.661 64.941,265.635 65.675,266.521 66.500 C 267.406 67.325,268.293 68.000,268.492 68.000 C 268.691 68.000,269.426 68.428,270.127 68.950 C 270.827 69.473,272.075 70.117,272.900 70.382 C 273.725 70.646,274.400 71.020,274.400 71.213 C 274.400 71.600,279.898 74.908,285.000 77.590 C 286.100 78.169,287.761 79.128,288.692 79.721 C 289.623 80.314,290.470 80.800,290.574 80.800 C 290.679 80.800,291.718 81.365,292.882 82.056 C 295.751 83.757,297.484 84.745,299.475 85.812 C 300.397 86.306,301.729 87.122,302.436 87.626 C 303.143 88.129,305.179 89.307,306.961 90.243 C 308.742 91.180,311.010 92.395,312.000 92.945 C 314.803 94.501,317.865 96.138,322.000 98.292 C 324.090 99.381,326.610 100.730,327.600 101.289 C 328.590 101.849,330.570 102.930,332.000 103.692 C 333.430 104.454,336.220 105.942,338.200 106.999 C 341.594 108.809,344.888 110.956,351.400 115.597 C 352.940 116.695,354.380 117.596,354.600 117.599 C 355.547 117.611,357.844 120.305,358.354 122.000 C 358.652 122.990,359.144 124.479,359.448 125.308 C 359.752 126.138,360.000 127.166,360.000 127.594 C 360.000 128.022,360.242 129.143,360.539 130.086 C 362.651 136.811,362.723 138.858,361.695 163.200 C 361.116 176.925,361.440 189.964,362.793 207.400 C 363.015 210.260,363.379 216.200,363.602 220.600 C 363.824 225.000,364.211 232.470,364.460 237.200 C 364.803 243.691,364.799 247.860,364.446 254.200 C 364.188 258.820,363.887 269.008,363.776 276.839 C 363.590 289.980,363.341 294.026,362.388 299.400 C 362.193 300.500,361.785 303.290,361.482 305.600 C 360.415 313.718,356.263 317.586,335.261 330.029 C 334.066 330.736,327.729 333.948,323.200 336.140 C 321.550 336.939,318.940 338.284,317.400 339.129 C 315.860 339.973,313.405 341.318,311.945 342.117 C 310.485 342.916,308.235 344.206,306.945 344.984 C 305.655 345.762,304.410 346.398,304.178 346.399 C 303.946 346.400,302.866 346.978,301.778 347.685 C 298.819 349.608,298.287 349.926,297.260 350.388 C 296.742 350.621,295.392 351.415,294.260 352.153 C 293.127 352.890,289.230 355.251,285.600 357.398 C 281.970 359.545,278.242 361.823,277.315 362.460 C 276.388 363.097,274.768 364.070,273.715 364.621 C 272.662 365.172,270.360 366.542,268.600 367.665 C 266.840 368.788,262.970 371.055,260.000 372.704 C 257.030 374.353,253.970 376.195,253.200 376.797 C 252.430 377.400,249.730 379.058,247.200 380.482 C 238.076 385.617,237.391 386.008,236.800 386.412 C 236.470 386.638,235.695 387.133,235.077 387.511 C 231.558 389.669,225.783 393.582,222.800 395.829 C 221.590 396.741,218.980 398.346,217.000 399.396 C 215.020 400.447,213.130 401.534,212.800 401.812 C 212.470 402.090,211.390 402.406,210.400 402.515 C 209.410 402.623,207.880 402.908,207.000 403.147 C 204.999 403.691,198.583 403.344,195.600 402.531 C 192.748 401.754,182.155 395.973,175.639 391.638 C 169.523 387.569,166.677 385.602,164.703 384.079 C 163.505 383.156,162.389 382.400,162.221 382.400 C 162.053 382.400,161.189 381.815,160.302 381.100 C 159.415 380.385,157.370 378.990,155.756 378.000 C 152.839 376.209,143.544 370.635,142.400 369.989 C 142.070 369.803,140.379 368.784,138.642 367.725 C 135.142 365.592,131.077 363.401,122.400 358.971 C 119.210 357.342,116.150 355.738,115.600 355.405 C 113.859 354.354,88.724 342.189,85.800 340.983 C 84.260 340.347,81.813 339.075,80.362 338.156 C 78.911 337.237,77.111 336.175,76.362 335.796 C 73.762 334.483,59.778 325.917,55.826 323.217 C 53.640 321.724,51.210 320.171,50.426 319.766 C 47.045 318.020,46.211 317.028,44.235 312.398 C 42.359 308.004,41.888 306.151,40.577 298.000 C 39.403 290.702,39.443 270.615,40.647 262.200 C 41.194 258.379,41.506 248.418,41.379 238.809 C 41.233 227.812,41.095 224.657,40.382 216.000 C 38.782 196.568,38.358 150.914,39.696 142.200 C 42.764 122.227,45.460 117.364,57.241 110.568 C 58.648 109.756,60.250 108.679,60.800 108.174 C 61.350 107.670,62.068 107.200,62.395 107.129 C 62.722 107.058,64.342 106.173,65.995 105.162 C 67.648 104.151,71.070 102.096,73.600 100.595 C 76.130 99.095,79.730 96.932,81.600 95.790 C 83.470 94.647,87.430 92.329,90.400 90.638 C 93.370 88.947,96.070 87.392,96.400 87.183 C 96.730 86.974,97.810 86.378,98.800 85.859 C 99.790 85.339,102.670 83.689,105.200 82.192 C 111.582 78.414,113.886 77.170,127.400 70.203 C 131.580 68.048,135.720 65.888,136.600 65.403 C 140.126 63.461,147.885 59.022,149.231 58.176 C 150.017 57.682,152.447 56.330,154.631 55.172 C 156.814 54.013,159.320 52.601,160.200 52.034 C 161.080 51.467,162.452 50.642,163.249 50.201 C 165.621 48.889,172.479 44.773,174.200 43.628 C 175.080 43.043,176.250 42.346,176.800 42.079 C 177.817 41.587,179.868 40.252,185.350 36.517 C 192.590 31.584,196.900 30.504,203.600 31.945 M255.233 55.133 C 262.606 58.873,269.134 62.312,269.800 62.808 C 270.020 62.971,274.340 65.358,279.400 68.112 C 297.009 77.696,304.455 82.229,315.400 90.031 C 316.940 91.129,319.280 92.773,320.600 93.684 C 324.934 96.677,326.698 98.126,325.600 97.790 C 323.137 97.035,310.888 90.701,304.000 86.620 C 299.048 83.686,296.662 82.329,293.400 80.592 C 292.080 79.889,288.300 77.697,285.000 75.721 C 281.700 73.745,276.660 70.803,273.800 69.184 C 270.940 67.564,267.340 65.321,265.800 64.199 C 264.260 63.077,261.920 61.546,260.600 60.796 C 259.280 60.047,257.182 58.661,255.938 57.717 C 254.693 56.773,253.506 56.000,253.300 56.000 C 253.093 56.000,252.581 55.621,252.162 55.157 C 251.743 54.694,250.758 53.987,249.973 53.587 C 248.507 52.838,247.204 51.600,247.884 51.600 C 248.094 51.600,251.401 53.190,255.233 55.133 M40.988 125.500 C 40.411 128.991,39.485 131.381,39.105 130.356 C 38.764 129.433,39.111 127.338,39.988 125.032 C 40.595 123.434,41.277 123.753,40.988 125.500 M85.190 127.426 C 84.976 127.990,84.800 128.589,84.800 128.756 C 84.800 129.603,82.797 130.886,81.847 130.647 C 81.234 130.494,80.729 130.591,80.538 130.899 C 79.678 132.285,78.820 152.621,79.073 165.600 C 79.283 176.352,79.323 177.202,79.948 184.200 C 80.184 186.840,80.452 190.350,80.545 192.000 C 80.728 195.257,81.026 196.927,81.619 198.036 C 81.829 198.427,82.000 199.104,82.000 199.540 C 82.000 199.976,82.225 200.424,82.500 200.535 C 82.799 200.656,82.718 200.750,82.300 200.768 C 81.915 200.786,81.600 200.944,81.600 201.120 C 81.600 201.874,82.642 203.594,83.100 203.597 C 83.375 203.599,83.600 204.022,83.600 204.538 C 83.600 205.641,84.878 206.925,86.063 207.012 C 86.522 207.046,87.064 207.372,87.269 207.737 C 87.854 208.782,89.164 208.547,89.633 207.314 C 89.918 206.564,90.142 206.382,90.355 206.727 C 90.527 207.006,90.967 207.111,91.347 206.965 C 91.745 206.812,92.337 206.981,92.767 207.370 C 94.377 208.827,94.813 207.236,94.835 199.818 C 94.836 199.389,95.003 198.837,95.206 198.593 C 95.884 197.776,95.948 195.203,95.429 189.681 C 94.903 184.094,94.685 180.240,94.630 175.600 L 94.600 173.000 97.400 172.756 C 104.718 172.118,110.415 171.529,112.600 171.184 C 113.920 170.976,115.737 170.805,116.638 170.803 L 118.276 170.800 118.585 177.100 C 118.755 180.565,118.956 184.584,119.031 186.031 C 119.106 187.478,119.369 189.188,119.615 189.831 L 120.062 191.000 120.831 190.056 L 121.600 189.111 121.600 189.993 C 121.600 190.544,121.294 190.955,120.784 191.088 C 119.679 191.377,120.423 192.680,121.887 193.020 C 121.935 193.031,122.175 194.831,122.421 197.020 C 122.899 201.268,125.293 207.193,126.872 208.038 C 127.793 208.531,129.600 208.077,129.600 207.353 C 129.600 207.044,129.960 206.484,130.400 206.107 C 130.840 205.730,131.200 205.187,131.200 204.898 C 131.200 204.610,131.549 203.338,131.976 202.070 C 132.636 200.111,132.727 198.960,132.580 194.383 C 131.996 176.175,131.914 172.429,131.987 167.205 C 132.031 164.017,132.207 161.159,132.378 160.854 C 132.549 160.549,132.464 159.827,132.190 159.250 C 131.898 158.635,131.578 155.462,131.418 151.600 C 130.726 134.931,130.717 134.846,129.190 131.866 C 127.745 129.047,126.111 128.386,125.092 130.208 C 124.640 131.016,123.632 130.954,123.317 130.100 C 122.979 129.186,122.404 128.814,121.314 128.806 C 120.099 128.798,119.747 129.672,119.462 133.400 C 119.328 135.160,119.041 138.490,118.824 140.800 C 118.608 143.110,118.343 147.747,118.236 151.105 C 118.129 154.463,117.938 157.377,117.811 157.582 C 117.478 158.121,112.517 158.675,101.595 159.394 C 100.163 159.488,97.851 159.831,96.458 160.156 C 95.065 160.481,93.692 160.657,93.406 160.547 C 92.726 160.286,92.248 151.733,92.313 141.000 C 92.375 130.993,91.804 128.800,89.138 128.800 C 88.451 128.800,88.000 128.587,88.000 128.262 C 88.000 126.620,85.751 125.951,85.190 127.426 M262.903 128.075 C 262.047 128.931,262.011 128.934,261.203 128.202 C 260.392 127.469,260.364 127.473,259.699 128.428 C 258.573 130.043,256.728 131.547,256.147 131.324 C 255.836 131.205,255.600 131.370,255.600 131.708 C 255.600 132.035,255.353 132.507,255.051 132.758 C 254.749 133.009,254.191 134.336,253.811 135.707 C 253.432 137.078,252.880 138.740,252.584 139.400 C 251.418 142.007,249.581 148.997,248.379 155.400 C 247.925 157.820,247.209 161.240,246.788 163.000 C 246.368 164.760,245.834 167.460,245.602 169.000 C 244.988 173.083,243.961 177.600,243.648 177.600 C 243.315 177.600,242.612 175.849,241.558 172.400 C 241.121 170.970,240.031 168.090,239.135 166.000 C 238.239 163.910,237.373 161.840,237.209 161.400 C 237.045 160.960,236.623 159.934,236.272 159.121 C 235.826 158.088,235.704 157.037,235.870 155.638 C 236.224 152.653,235.297 151.969,230.800 151.900 C 225.052 151.811,222.070 153.603,221.778 157.321 C 221.729 157.940,221.412 158.661,221.074 158.923 C 220.735 159.185,220.254 160.210,220.005 161.200 C 219.756 162.190,219.203 163.763,218.776 164.696 C 218.349 165.628,218.000 166.556,218.000 166.757 C 218.000 166.959,217.531 168.446,216.958 170.062 C 216.385 171.678,215.613 173.867,215.241 174.927 C 214.119 178.129,213.580 177.341,212.147 170.400 C 211.806 168.750,210.848 165.060,210.018 162.200 C 205.240 145.734,204.218 141.913,203.625 138.304 C 203.371 136.763,202.763 134.965,202.204 134.104 C 200.058 130.801,199.991 130.738,198.839 130.991 C 198.044 131.166,197.553 131.011,197.014 130.415 C 195.300 128.521,194.518 129.271,194.322 132.995 C 194.157 136.145,193.726 137.658,193.319 136.520 C 192.843 135.193,191.564 134.084,190.752 134.297 C 189.636 134.589,189.900 137.172,191.564 142.234 C 192.838 146.109,195.453 155.910,195.985 158.800 C 196.167 159.790,196.684 162.220,197.133 164.200 C 198.805 171.557,200.853 180.715,201.650 184.400 C 203.260 191.835,205.202 197.171,206.413 197.488 C 206.846 197.601,207.200 197.847,207.200 198.034 C 207.200 198.222,206.903 198.261,206.540 198.122 C 205.984 197.908,205.926 198.052,206.172 199.032 C 206.549 200.534,207.119 201.200,208.025 201.200 C 208.425 201.200,208.865 201.381,209.002 201.603 C 209.781 202.864,212.426 203.574,213.255 202.745 C 214.048 201.952,215.200 201.977,215.200 202.787 C 215.200 203.260,216.774 203.334,217.455 202.894 C 217.705 202.732,218.209 201.882,218.574 201.005 C 218.939 200.128,219.560 199.048,219.954 198.605 C 220.848 197.599,222.900 192.365,223.956 188.400 C 225.330 183.238,228.231 174.656,228.649 174.517 C 228.869 174.444,229.375 175.422,229.773 176.692 C 230.171 177.961,230.829 179.720,231.234 180.600 C 231.639 181.480,232.157 182.965,232.385 183.900 C 233.363 187.908,233.628 188.865,233.944 189.514 C 234.128 189.891,235.211 192.090,236.350 194.400 C 237.490 196.710,238.417 198.815,238.411 199.077 C 238.395 199.760,240.016 200.800,241.095 200.800 C 241.735 200.800,242.202 201.193,242.639 202.100 C 243.702 204.305,245.083 205.082,246.499 204.269 C 247.140 203.901,248.166 203.600,248.778 203.600 C 249.784 203.600,252.000 200.170,252.000 198.613 C 252.000 198.455,252.360 197.869,252.800 197.309 C 253.240 196.750,253.598 195.911,253.597 195.446 C 253.592 194.382,254.630 189.828,255.674 186.328 C 256.139 184.772,256.355 183.289,256.193 182.778 C 256.017 182.224,256.064 181.992,256.320 182.150 C 256.565 182.302,256.641 182.080,256.513 181.587 C 256.388 181.110,256.598 180.444,257.020 179.977 C 257.573 179.367,257.631 179.071,257.271 178.711 C 256.651 178.091,256.668 176.524,257.300 176.120 C 257.575 175.944,257.818 175.575,257.840 175.300 C 257.959 173.807,258.047 173.600,258.557 173.600 C 259.034 173.600,259.607 172.378,259.776 171.000 C 260.080 168.527,261.689 159.814,261.992 159.000 C 262.853 156.693,263.627 154.074,263.543 153.758 C 263.423 153.307,263.914 151.086,264.595 149.000 C 264.883 148.120,265.326 145.330,265.581 142.800 C 265.882 139.805,266.385 137.327,267.022 135.696 C 268.278 132.481,268.254 131.915,266.800 130.462 C 266.140 129.802,265.600 128.907,265.600 128.474 C 265.600 127.782,264.895 127.200,264.056 127.200 C 263.903 127.200,263.384 127.594,262.903 128.075 M165.569 128.453 C 164.575 129.225,164.487 129.229,163.088 128.562 C 161.223 127.672,160.781 128.032,159.828 131.214 C 159.424 132.563,158.893 133.726,158.647 133.800 C 158.401 133.873,157.718 134.038,157.129 134.167 C 155.992 134.415,154.877 136.118,154.535 138.129 C 154.429 138.749,153.979 139.621,153.535 140.065 C 153.061 140.539,152.809 141.190,152.926 141.637 C 153.035 142.057,152.991 142.400,152.826 142.400 C 151.817 142.400,146.146 161.494,144.986 168.800 C 144.619 171.110,144.082 173.729,143.792 174.619 C 143.502 175.510,143.144 177.580,142.997 179.219 C 142.738 182.101,141.784 186.737,139.766 194.916 C 138.519 199.971,138.505 201.511,139.700 201.976 C 140.753 202.386,141.516 201.653,141.878 199.884 C 142.271 197.963,143.000 198.928,143.000 201.370 C 143.000 203.203,143.166 203.803,143.819 204.334 C 144.270 204.700,144.760 205.315,144.907 205.700 C 145.641 207.617,148.417 204.453,148.394 201.726 C 148.391 201.327,149.010 199.740,149.769 198.200 C 150.896 195.916,153.172 189.255,154.622 184.000 C 155.180 181.977,156.065 181.658,163.400 180.832 C 165.380 180.610,168.870 180.140,171.155 179.788 C 173.440 179.437,175.440 179.296,175.599 179.475 C 176.045 179.976,180.326 192.814,180.829 195.159 C 181.098 196.413,181.578 197.429,182.037 197.716 C 182.457 197.978,182.800 198.400,182.800 198.653 C 182.800 199.280,183.911 199.667,184.098 199.106 C 184.408 198.177,185.541 199.218,186.936 201.712 C 189.155 205.680,192.000 206.594,192.000 203.338 C 192.000 202.837,192.344 202.244,192.765 202.019 C 194.741 200.961,195.274 193.904,193.541 191.744 C 193.340 191.493,192.471 189.243,191.612 186.744 C 190.752 184.245,189.585 180.970,189.019 179.467 C 187.113 174.409,187.077 173.752,188.645 172.826 C 190.403 171.789,190.359 170.994,188.500 170.185 C 187.675 169.827,186.730 169.394,186.400 169.223 C 186.070 169.053,185.386 167.493,184.879 165.757 C 179.743 148.150,174.534 134.735,171.848 132.200 C 171.149 131.540,170.042 130.347,169.389 129.550 C 167.882 127.711,166.891 127.427,165.569 128.453 M282.778 129.900 C 282.557 130.505,282.293 131.236,282.191 131.525 C 281.942 132.230,281.235 131.745,280.785 130.561 C 280.425 129.615,279.445 129.329,278.536 129.907 C 277.330 130.675,276.413 134.467,275.952 140.600 C 275.556 145.876,275.473 146.711,274.877 151.400 C 274.653 153.160,274.470 155.140,274.470 155.800 C 274.468 160.546,274.283 163.524,273.773 167.000 C 273.133 171.359,273.046 178.212,273.617 179.188 C 273.814 179.525,273.981 179.643,273.988 179.451 C 273.995 179.259,274.272 179.328,274.605 179.604 C 275.257 180.146,274.658 181.407,273.955 180.972 C 273.760 180.851,273.600 180.934,273.600 181.157 C 273.600 181.379,273.843 181.704,274.140 181.880 C 274.924 182.344,275.377 187.200,274.637 187.200 C 273.973 187.200,273.600 188.064,273.600 189.600 C 273.600 191.161,273.994 192.049,274.542 191.721 C 274.794 191.570,274.730 191.778,274.401 192.184 C 273.970 192.714,273.761 194.197,273.658 197.464 C 273.482 203.012,273.831 203.831,276.419 203.932 C 277.626 203.980,278.391 204.282,279.103 204.994 C 279.758 205.649,280.391 205.923,280.950 205.793 C 282.373 205.462,283.749 205.261,284.804 205.230 C 286.131 205.190,287.596 201.237,287.409 198.200 C 286.665 186.136,286.724 176.180,287.542 175.446 C 288.610 174.488,291.307 176.678,301.685 186.929 C 305.108 190.310,306.658 191.586,307.124 191.408 C 307.482 191.270,307.643 191.290,307.481 191.453 C 307.064 191.870,309.613 194.400,310.451 194.400 C 311.268 194.400,312.964 196.611,312.600 197.201 C 312.462 197.424,312.734 197.749,313.204 197.923 C 313.674 198.097,314.021 198.411,313.975 198.620 C 313.928 198.829,314.273 199.196,314.742 199.436 C 315.211 199.675,315.925 200.170,316.329 200.536 C 317.416 201.520,320.000 200.957,320.000 199.736 C 320.000 198.942,320.345 199.069,321.896 200.431 C 324.840 203.015,327.840 200.426,325.341 197.458 C 324.520 196.482,324.416 196.174,324.881 196.082 C 325.350 195.990,325.439 195.515,325.292 193.882 C 324.987 190.478,324.426 189.813,314.418 180.991 C 308.990 176.207,303.747 171.131,302.740 169.684 C 302.389 169.180,301.269 167.888,300.251 166.813 C 299.233 165.738,298.400 164.697,298.400 164.501 C 298.400 163.864,305.379 156.277,308.611 153.400 C 321.481 141.944,324.563 136.436,320.256 132.593 C 320.005 132.370,319.517 131.650,319.171 130.993 C 318.319 129.376,317.195 129.565,314.300 131.813 C 313.035 132.796,311.811 133.600,311.581 133.600 C 311.350 133.600,309.032 135.625,306.428 138.100 C 303.824 140.575,300.923 143.230,299.980 144.000 C 298.167 145.481,293.800 149.484,289.850 153.285 C 288.544 154.542,287.324 155.477,287.140 155.363 C 286.956 155.249,286.810 150.506,286.814 144.821 C 286.826 131.295,286.416 128.800,284.180 128.800 C 283.453 128.800,283.070 129.101,282.778 129.900 M173.161 138.860 C 173.732 140.497,173.734 140.491,172.800 139.907 C 172.360 139.632,172.000 139.001,172.000 138.504 C 172.000 137.196,172.650 137.395,173.161 138.860 M155.194 143.900 C 155.186 144.761,154.528 145.862,154.211 145.544 C 153.956 145.289,154.651 143.200,154.990 143.200 C 155.106 143.200,155.197 143.515,155.194 143.900 M166.000 153.076 C 166.000 153.364,166.144 153.600,166.320 153.600 C 166.495 153.600,166.876 154.275,167.166 155.100 C 167.455 155.925,167.931 157.140,168.223 157.800 C 168.947 159.435,170.739 165.067,171.032 166.628 C 171.295 168.031,171.750 167.848,166.000 168.654 C 165.230 168.762,163.970 169.018,163.200 169.223 C 158.900 170.368,158.752 170.102,160.397 164.200 C 160.888 162.440,161.497 160.190,161.751 159.200 C 162.005 158.210,162.435 157.007,162.706 156.526 C 162.978 156.046,163.200 155.476,163.200 155.259 C 163.200 153.671,164.887 151.036,165.430 151.776 C 165.744 152.204,166.000 152.789,166.000 153.076 M98.800 161.600 C 98.800 161.820,98.530 162.000,98.200 162.000 C 97.870 162.000,97.600 161.820,97.600 161.600 C 97.600 161.380,97.870 161.200,98.200 161.200 C 98.530 161.200,98.800 161.380,98.800 161.600 M369.147 179.400 C 369.857 194.349,369.083 212.961,368.235 201.320 C 367.372 189.471,367.108 167.026,367.803 164.600 C 368.207 163.192,368.563 167.120,369.147 179.400 M33.758 202.011 C 33.870 203.215,34.073 206.450,34.210 209.200 C 34.348 211.950,34.632 215.820,34.843 217.800 C 36.080 229.421,35.510 264.488,34.042 267.111 C 33.714 267.698,33.291 263.226,32.972 255.800 C 32.806 251.929,32.794 206.296,32.958 204.600 C 33.022 203.940,33.103 202.515,33.137 201.433 C 33.217 198.932,33.497 199.192,33.758 202.011 M243.343 216.877 C 243.160 217.165,242.623 218.120,242.149 219.000 C 241.430 220.334,241.056 220.620,239.895 220.721 C 238.242 220.865,238.001 221.833,237.999 228.356 C 237.998 230.470,237.823 234.180,237.610 236.600 C 236.865 245.063,236.963 266.188,237.795 276.400 C 237.894 277.610,238.070 279.936,238.188 281.569 C 238.437 285.030,239.250 286.441,240.397 285.402 C 241.003 284.855,241.184 284.947,242.351 286.399 C 243.547 287.887,244.800 288.509,244.800 287.614 C 244.800 286.521,246.415 286.379,247.421 287.384 C 249.057 289.020,250.400 287.988,250.400 285.095 C 250.400 284.213,250.731 283.109,251.184 282.484 C 251.930 281.453,251.953 280.982,251.651 272.800 C 251.476 268.070,251.305 256.100,251.269 246.200 C 251.182 221.797,250.710 218.756,247.092 219.286 C 246.510 219.371,246.196 219.044,245.856 218.000 C 245.373 216.516,243.971 215.889,243.343 216.877 M300.386 217.226 C 300.028 217.894,300.033 222.436,300.407 236.483 C 300.730 248.640,300.761 254.999,300.498 255.262 C 300.236 255.524,298.890 254.463,296.525 252.129 C 292.778 248.432,289.804 246.483,288.609 246.941 C 287.964 247.189,287.960 247.279,288.557 248.190 C 289.562 249.725,289.361 250.002,287.315 249.897 C 284.825 249.769,284.564 250.703,286.517 252.744 C 287.729 254.011,291.271 258.530,294.921 263.467 C 297.712 267.242,301.701 270.876,302.773 270.620 C 304.942 270.102,305.007 270.129,304.874 271.500 C 304.612 274.217,305.494 273.462,312.128 265.284 C 315.299 261.376,320.206 254.540,321.612 252.074 C 321.948 251.483,322.549 250.513,322.946 249.918 C 323.749 248.716,323.544 248.000,322.397 248.000 C 321.981 248.000,321.153 247.547,320.556 246.994 C 319.643 246.148,319.364 246.069,318.802 246.494 C 318.435 246.772,317.249 247.630,316.167 248.399 C 315.085 249.169,313.125 250.878,311.811 252.197 L 309.421 254.595 309.160 252.997 C 309.016 252.119,308.784 247.440,308.645 242.600 C 308.050 221.848,307.918 219.546,307.344 219.766 C 306.988 219.903,306.795 219.668,306.786 219.087 C 306.752 216.985,305.630 216.039,305.614 218.100 C 305.600 219.963,305.037 220.683,304.676 219.300 C 304.485 218.570,304.403 220.665,304.318 228.400 C 304.267 233.122,303.559 235.883,303.054 233.333 C 302.791 232.010,302.014 222.476,301.887 219.032 C 301.794 216.497,301.175 215.752,300.386 217.226 M162.600 217.003 C 162.380 217.080,159.590 217.231,156.400 217.339 C 153.210 217.446,148.350 217.901,145.600 218.349 C 140.643 219.157,136.633 219.758,126.600 221.193 C 121.670 221.899,118.410 222.487,115.152 223.260 C 112.443 223.902,110.521 226.300,112.200 226.945 C 113.237 227.343,112.856 227.900,111.356 228.182 C 110.416 228.358,109.842 228.719,109.712 229.213 C 109.603 229.631,109.173 230.082,108.757 230.214 C 107.037 230.760,108.036 232.800,110.024 232.800 C 111.268 232.800,111.832 233.079,112.980 234.260 L 114.398 235.721 118.099 235.444 C 133.326 234.307,135.284 234.211,135.535 234.594 C 135.681 234.817,135.841 244.000,135.892 255.000 C 135.982 274.777,136.218 279.674,137.211 282.400 C 139.259 288.024,139.248 288.003,140.191 287.767 C 140.795 287.615,141.171 287.748,141.333 288.170 C 141.596 288.856,142.812 289.014,143.420 288.443 C 144.322 287.595,146.400 288.433,146.400 289.645 C 146.400 290.858,147.193 291.209,147.879 290.300 C 148.596 289.349,149.440 285.598,150.289 279.600 C 150.921 275.131,150.603 260.528,149.683 251.800 C 148.434 239.942,148.116 232.823,148.817 232.390 C 149.444 232.002,152.959 231.688,159.800 231.408 C 166.601 231.129,169.200 230.685,169.200 229.803 C 169.200 228.106,171.115 225.801,172.707 225.580 C 177.449 224.923,178.057 221.469,173.618 220.404 C 172.077 220.035,171.542 219.707,171.372 219.031 C 170.928 217.263,165.464 216.000,162.600 217.003 M217.578 219.252 C 217.060 220.504,216.748 220.623,215.695 219.969 C 214.718 219.364,212.800 220.141,212.800 221.141 C 212.800 221.560,212.509 222.144,212.153 222.439 C 211.393 223.070,211.550 225.778,212.547 229.260 C 214.417 235.793,214.957 252.956,213.463 258.400 C 209.154 274.104,205.693 277.973,198.721 274.880 C 191.513 271.682,186.482 241.591,190.664 226.686 L 191.343 224.265 189.987 223.132 C 188.148 221.597,187.295 221.675,186.556 223.443 C 185.850 225.134,185.748 225.086,185.075 222.758 C 183.612 217.696,180.496 220.213,179.079 227.600 C 178.974 228.150,178.503 230.040,178.032 231.800 C 176.946 235.864,176.447 248.148,177.180 252.800 C 177.439 254.450,177.700 256.275,177.759 256.855 C 177.818 257.435,178.194 258.602,178.596 259.447 C 178.997 260.293,179.377 261.619,179.440 262.393 C 179.503 263.167,179.780 264.790,180.056 266.000 C 180.332 267.210,180.572 269.460,180.588 271.000 C 180.716 282.830,195.108 291.704,206.603 287.039 C 212.739 284.549,215.197 283.123,217.704 280.600 C 220.449 277.838,223.765 273.008,223.462 272.216 C 223.348 271.920,223.500 270.865,223.799 269.871 C 224.098 268.878,224.247 267.703,224.131 267.259 C 224.016 266.816,224.285 264.867,224.731 262.927 C 225.490 259.622,226.178 255.375,227.181 247.800 C 228.174 240.306,227.310 228.648,225.373 223.400 C 224.712 221.609,222.824 219.017,222.254 219.119 C 221.888 219.184,221.499 219.001,221.388 218.712 C 220.956 217.588,218.100 217.993,217.578 219.252 M318.098 250.887 C 317.321 251.663,316.803 251.928,316.624 251.638 C 316.472 251.392,316.929 250.609,317.641 249.897 C 318.545 248.993,318.989 248.767,319.115 249.146 C 319.215 249.444,318.757 250.228,318.098 250.887 M307.784 252.565 C 307.675 253.024,307.522 253.992,307.444 254.716 C 307.167 257.275,306.800 256.492,306.813 253.367 C 306.824 250.517,306.883 250.276,307.404 250.965 C 307.722 251.385,307.894 252.105,307.784 252.565 M314.000 252.387 C 314.000 252.870,311.521 255.600,311.082 255.600 C 310.557 255.600,313.348 252.040,313.900 252.006 C 313.955 252.003,314.000 252.174,314.000 252.387 M298.619 257.058 C 299.975 258.522,299.953 259.450,298.584 258.553 C 297.668 257.953,296.800 256.821,296.800 256.226 C 296.800 255.669,297.722 256.091,298.619 257.058 M312.760 260.700 C 310.760 263.300,309.072 265.200,308.763 265.200 C 308.176 265.200,308.347 264.076,309.019 263.516 C 309.359 263.232,310.288 262.325,311.083 261.500 C 312.543 259.985,313.754 259.407,312.760 260.700 M333.394 264.011 C 332.764 265.230,332.716 265.248,331.962 264.565 C 330.494 263.237,330.210 264.291,330.074 271.592 C 329.988 276.180,329.796 278.467,329.474 278.724 C 329.213 278.933,324.230 279.219,318.400 279.360 C 312.570 279.501,307.260 279.686,306.600 279.770 C 305.428 279.920,299.469 280.208,289.000 280.619 C 286.140 280.732,282.841 281.014,281.668 281.247 C 278.925 281.791,279.061 282.049,278.740 275.674 C 278.310 267.123,277.496 263.724,276.147 264.844 C 275.846 265.094,275.600 265.816,275.600 266.449 C 275.600 267.806,274.913 268.004,274.728 266.700 C 274.658 266.205,274.330 265.800,274.000 265.800 C 272.800 265.800,273.315 283.092,274.548 284.209 C 274.797 284.434,275.199 284.974,275.443 285.409 C 276.241 286.833,277.200 286.639,277.200 285.053 C 277.200 283.458,277.757 282.900,278.627 283.622 C 279.148 284.055,279.146 284.223,278.610 285.041 C 277.417 286.862,286.127 287.565,299.600 286.735 C 304.110 286.457,311.850 286.204,316.800 286.173 C 321.750 286.141,327.412 285.921,329.381 285.684 C 331.351 285.447,333.092 285.333,333.249 285.431 C 333.609 285.653,335.200 283.666,335.200 282.995 C 335.200 282.721,335.565 282.251,336.011 281.949 C 337.549 280.908,337.482 274.136,335.848 265.404 C 335.314 262.549,334.414 262.038,333.394 264.011 M301.546 266.620 C 301.673 267.273,301.605 267.302,301.046 266.838 C 300.282 266.204,300.186 265.462,300.900 265.700 C 301.175 265.791,301.466 266.206,301.546 266.620 M184.400 276.247 C 184.400 276.577,184.220 276.736,184.000 276.600 C 183.780 276.464,183.600 276.083,183.600 275.753 C 183.600 275.423,183.780 275.264,184.000 275.400 C 184.220 275.536,184.400 275.917,184.400 276.247 M332.400 283.000 C 332.400 283.400,332.000 283.600,331.200 283.600 C 330.053 283.600,329.693 283.240,330.267 282.667 C 330.790 282.143,332.400 282.395,332.400 283.000 M328.174 283.158 C 328.522 283.721,327.258 284.053,323.846 284.297 C 321.250 284.482,320.726 284.423,320.879 283.961 C 321.195 283.011,327.645 282.301,328.174 283.158 M365.395 301.800 C 365.188 302.969,363.627 305.408,363.609 304.590 C 363.585 303.504,364.476 297.402,364.713 297.027 C 365.091 296.427,365.651 300.347,365.395 301.800 M304.642 305.623 C 302.941 307.644,299.490 320.095,300.153 321.821 C 300.542 322.836,301.012 322.202,301.801 319.595 C 302.666 316.739,303.027 316.483,306.408 316.321 L 308.950 316.200 309.779 318.800 C 310.741 321.820,311.114 322.501,311.628 322.183 C 312.136 321.869,312.098 318.311,311.572 316.927 C 311.205 315.960,311.261 315.724,311.972 315.252 C 313.085 314.513,313.015 314.153,311.668 313.684 C 310.677 313.338,310.420 312.881,309.597 309.991 C 308.117 304.791,306.524 303.387,304.642 305.623 M315.276 304.678 C 314.065 304.919,313.797 305.712,314.535 306.868 C 315.087 307.731,316.961 320.199,316.855 322.300 C 316.722 324.910,326.141 319.962,328.085 316.400 C 329.000 314.724,328.882 311.795,327.835 310.197 C 326.019 307.426,318.367 304.064,315.276 304.678 M270.200 305.200 C 270.064 305.420,270.041 305.742,270.148 305.917 C 270.256 306.091,270.548 308.815,270.798 311.971 C 271.319 318.570,271.078 319.429,269.273 317.383 C 266.981 314.785,265.357 312.660,264.349 310.938 C 263.244 309.052,261.842 307.803,261.245 308.172 C 260.804 308.445,260.216 319.989,260.584 321.150 C 261.236 323.204,262.400 321.840,262.400 319.023 C 262.400 316.517,262.857 313.600,263.250 313.600 C 263.438 313.600,264.504 314.856,265.621 316.390 C 272.028 325.200,274.971 323.032,272.831 311.077 C 271.865 305.684,271.040 303.841,270.200 305.200 M88.077 305.740 C 87.349 306.004,86.891 306.357,87.059 306.526 C 87.227 306.694,86.653 307.521,85.783 308.364 C 84.912 309.206,84.014 310.144,83.786 310.448 C 82.454 312.225,82.082 312.948,82.261 313.415 C 82.372 313.703,82.088 314.139,81.631 314.383 C 80.587 314.942,80.586 314.588,81.624 312.651 C 82.531 310.959,82.413 310.175,81.476 311.665 C 78.823 315.884,80.063 321.764,84.040 323.820 C 86.782 325.239,91.902 324.024,93.400 321.600 C 93.838 320.892,93.289 320.629,92.587 321.210 C 90.536 322.913,84.511 322.057,83.180 319.874 C 81.378 316.919,84.648 308.400,87.586 308.400 C 87.841 308.400,87.994 308.048,87.925 307.618 C 87.820 306.958,88.000 306.709,88.500 306.823 C 89.320 307.009,93.200 306.926,93.200 306.723 C 93.199 305.469,90.339 304.921,88.077 305.740 M119.400 305.662 C 117.778 306.549,116.967 308.400,118.200 308.400 C 118.530 308.400,118.800 308.216,118.800 307.990 C 118.800 307.127,120.935 306.723,123.157 307.166 C 127.128 307.958,127.149 308.624,123.298 311.650 C 119.830 314.376,119.542 314.361,119.021 311.432 C 118.407 307.980,117.693 308.103,117.584 311.679 C 117.343 319.600,117.786 323.793,118.967 324.773 C 119.923 325.566,120.108 324.584,119.814 320.265 L 119.538 316.200 122.002 315.031 C 127.234 312.548,129.100 310.255,128.015 307.637 C 127.161 305.574,121.805 304.346,119.400 305.662 M134.222 305.891 C 133.794 306.000,132.747 306.529,131.895 307.066 L 130.347 308.044 130.503 315.055 C 130.614 320.041,130.801 322.154,131.153 322.371 C 131.458 322.560,131.548 323.067,131.389 323.702 C 131.076 324.947,131.816 325.209,134.200 324.696 C 138.049 323.867,143.600 320.044,143.600 318.222 C 143.600 316.999,144.404 317.240,145.145 318.686 C 148.920 326.058,159.859 319.696,156.423 312.126 C 153.698 306.125,147.108 306.777,145.173 313.239 C 144.104 316.810,144.134 316.769,143.364 315.671 C 142.643 314.640,139.991 313.200,138.816 313.200 C 137.691 313.200,137.774 312.080,138.993 310.807 C 142.147 307.516,139.313 304.596,134.222 305.891 M162.562 306.900 C 162.200 307.615,161.690 308.470,161.429 308.800 C 160.887 309.486,159.136 315.231,158.179 319.463 C 157.588 322.080,157.764 324.000,158.595 324.000 C 158.893 324.000,160.400 320.320,160.400 319.593 C 160.400 318.145,161.688 317.279,164.106 317.102 C 166.761 316.908,167.004 317.093,167.379 319.600 C 168.133 324.632,169.400 324.810,169.400 319.885 C 169.400 317.797,169.584 316.261,169.867 315.976 C 170.224 315.617,170.116 315.304,169.412 314.653 C 168.904 314.184,167.985 312.360,167.369 310.600 C 165.498 305.250,163.987 304.087,162.562 306.900 M213.700 305.920 C 212.712 306.069,212.440 307.200,213.392 307.200 C 214.130 307.200,214.290 307.982,214.582 313.000 C 214.851 317.625,215.322 319.980,216.071 320.446 C 216.486 320.705,216.498 320.940,216.129 321.536 C 215.779 322.101,215.774 322.414,216.109 322.749 C 218.311 324.951,227.200 317.443,227.200 313.380 C 227.200 308.908,220.063 304.964,213.700 305.920 M175.312 306.708 C 172.729 307.700,172.217 310.660,173.215 318.810 C 173.729 323.003,173.905 323.600,174.627 323.600 C 175.070 323.600,175.200 322.964,175.200 320.800 C 175.200 317.339,175.066 317.353,180.872 320.200 C 185.586 322.512,186.174 322.689,186.640 321.935 C 187.045 321.280,185.572 320.196,181.500 318.150 C 177.358 316.069,177.462 316.422,180.200 313.748 C 184.837 309.221,181.453 304.347,175.312 306.708 M186.982 306.564 C 186.248 307.100,186.244 307.165,186.905 307.895 C 187.411 308.454,187.602 309.362,187.608 311.231 C 187.617 314.408,188.553 321.192,189.131 322.271 C 189.366 322.711,189.462 323.439,189.345 323.890 C 188.987 325.260,189.683 325.206,193.096 323.602 C 200.946 319.912,202.979 313.863,197.685 309.947 C 193.911 307.157,188.507 305.448,186.982 306.564 M98.639 307.137 C 98.524 307.323,98.243 309.888,98.015 312.837 C 97.787 315.787,97.492 318.885,97.361 319.723 C 96.860 322.917,98.713 324.859,101.458 324.017 C 105.152 322.884,107.600 321.685,107.600 321.006 C 107.600 320.673,107.555 320.400,107.500 320.401 C 107.445 320.401,105.874 320.670,104.009 320.998 C 99.160 321.851,98.854 321.518,99.524 316.109 C 100.364 309.326,99.940 305.032,98.639 307.137 M110.643 307.833 C 109.889 309.797,110.694 321.109,111.672 322.286 C 112.819 323.669,113.323 322.871,113.053 320.100 C 112.909 318.615,112.678 315.420,112.540 313.000 C 112.248 307.864,111.457 305.710,110.643 307.833 M137.932 307.719 C 138.494 308.395,137.662 309.617,134.906 312.163 C 132.500 314.386,132.124 314.034,132.338 309.758 C 132.424 308.030,136.851 306.416,137.932 307.719 M255.717 307.519 C 255.408 307.716,255.110 309.801,254.891 313.306 C 254.428 320.702,253.667 320.950,251.205 314.507 C 249.774 310.762,249.699 310.676,248.409 311.324 C 247.400 311.832,247.103 312.528,246.415 316.000 C 245.523 320.502,244.861 320.208,243.818 314.848 C 242.758 309.395,242.435 308.400,241.727 308.400 C 240.337 308.400,242.207 320.238,243.891 322.100 C 245.443 323.816,246.846 322.869,247.904 319.393 C 248.828 316.358,249.140 316.337,250.717 319.207 C 254.119 325.399,256.706 323.827,257.083 315.338 C 257.387 308.517,257.063 306.664,255.717 307.519 M290.073 308.010 C 286.286 310.325,285.943 318.445,289.544 320.543 C 294.240 323.277,300.207 318.293,298.717 312.880 C 298.179 310.926,294.886 307.600,293.490 307.600 C 292.926 307.600,292.226 307.510,291.933 307.399 C 291.640 307.289,290.803 307.564,290.073 308.010 M306.744 308.700 C 307.823 310.829,308.238 313.603,307.544 314.043 C 306.461 314.730,303.600 314.469,303.600 313.684 C 303.600 311.792,305.187 307.200,305.841 307.200 C 305.919 307.200,306.326 307.875,306.744 308.700 M321.941 308.652 C 327.554 311.540,328.078 314.286,323.661 317.676 C 319.367 320.972,318.955 320.886,318.363 316.565 C 316.906 305.939,316.861 306.039,321.941 308.652 M221.864 309.212 C 226.948 311.493,226.106 316.038,219.980 319.372 C 217.579 320.679,217.542 320.630,216.642 314.952 C 215.364 306.892,215.749 306.468,221.864 309.212 M179.359 308.454 C 181.435 309.400,180.689 311.337,177.370 313.621 C 175.152 315.146,174.800 314.931,174.800 312.053 C 174.800 308.530,176.529 307.165,179.359 308.454 M277.438 309.079 C 274.844 321.459,276.475 324.075,285.126 321.409 C 288.467 320.379,287.617 319.800,282.762 319.800 L 278.600 319.800 278.600 314.038 C 278.600 308.463,278.055 306.136,277.438 309.079 M193.490 309.856 C 199.423 312.674,199.623 316.511,194.022 320.070 C 191.661 321.570,191.319 321.505,191.001 319.500 C 190.853 318.565,190.368 315.954,189.924 313.697 C 188.775 307.859,188.931 307.692,193.490 309.856 M165.336 311.544 C 166.291 314.742,166.100 315.200,163.813 315.200 C 161.453 315.200,161.421 314.738,163.407 309.267 C 163.803 308.177,164.618 309.139,165.336 311.544 M233.600 309.751 C 233.600 310.055,234.144 310.528,234.808 310.803 C 238.789 312.452,239.009 317.430,235.188 319.406 C 231.221 321.458,228.502 316.888,230.869 312.147 C 231.908 310.067,231.513 309.357,230.180 310.906 C 226.562 315.110,228.629 322.021,233.494 321.987 C 238.334 321.953,242.047 315.566,239.372 311.877 C 237.992 309.972,233.600 308.355,233.600 309.751 M292.651 309.838 C 297.272 311.743,297.972 316.423,293.958 318.572 C 289.548 320.933,286.918 314.187,290.499 309.700 C 290.988 309.087,290.799 309.075,292.651 309.838 M151.074 310.825 C 154.010 311.935,155.165 314.561,153.841 317.121 C 151.115 322.393,145.268 319.771,146.800 313.964 C 147.698 310.560,148.606 309.893,151.074 310.825 M44.088 315.596 C 44.557 316.033,44.851 316.483,44.739 316.594 C 44.628 316.706,44.114 316.348,43.599 315.798 C 42.484 314.612,42.863 314.455,44.088 315.596 M136.833 315.341 C 139.759 315.452,141.600 316.314,141.600 317.574 C 141.600 319.066,137.136 321.863,134.400 322.086 L 133.000 322.200 132.644 319.552 C 132.211 316.341,132.535 314.613,133.501 314.983 C 133.867 315.124,135.367 315.285,136.833 315.341 M251.642 332.325 C 250.675 332.696,249.692 333.360,249.458 333.800 C 249.224 334.240,248.718 335.077,248.334 335.660 C 246.819 337.959,248.046 349.800,249.800 349.800 C 250.498 349.800,250.616 349.493,250.722 347.400 C 250.789 346.080,250.980 344.863,251.146 344.696 C 251.599 344.240,255.514 345.705,259.367 347.771 C 262.689 349.552,264.400 350.032,264.400 349.182 C 264.400 347.976,261.870 346.407,255.500 343.663 C 253.162 342.656,253.145 342.352,255.339 340.842 C 259.307 338.112,259.519 333.136,255.706 332.226 C 255.098 332.081,254.330 331.892,254.000 331.806 C 253.670 331.721,252.609 331.954,251.642 332.325 M162.803 333.287 C 162.363 334.009,161.617 335.770,161.147 337.200 C 160.026 340.605,159.300 342.000,158.649 342.000 C 158.152 342.000,156.023 337.819,155.390 335.600 C 154.519 332.542,153.132 332.583,151.995 335.700 C 151.369 337.414,151.007 337.986,150.841 337.519 C 150.709 337.145,150.574 339.263,150.543 342.227 C 150.512 345.191,150.380 348.198,150.250 348.908 C 149.945 350.575,150.491 351.554,151.335 350.854 C 151.737 350.520,152.013 349.225,152.182 346.879 C 152.505 342.402,153.248 338.349,153.717 338.506 C 153.919 338.573,154.503 339.656,155.014 340.913 C 157.327 346.598,160.277 347.604,161.543 343.140 C 163.569 335.992,163.932 335.842,165.181 341.638 C 166.393 347.263,167.239 349.911,168.064 350.658 C 169.168 351.657,169.388 351.060,168.857 348.500 C 168.594 347.235,167.933 343.770,167.386 340.800 C 165.910 332.784,164.510 330.488,162.803 333.287 M206.229 333.334 C 205.080 334.484,203.884 338.539,202.967 344.400 C 201.840 351.601,202.724 353.197,204.345 346.887 C 205.104 343.936,205.366 343.754,209.020 343.647 L 210.640 343.600 211.497 346.500 C 212.529 349.991,213.373 351.304,214.004 350.400 C 214.450 349.762,214.395 349.159,213.552 345.461 C 213.067 343.336,213.082 343.076,213.709 342.617 C 214.634 341.941,214.580 341.649,213.451 341.220 C 212.742 340.950,212.222 340.089,211.389 337.805 C 209.655 333.052,207.971 331.593,206.229 333.334 M221.326 334.700 C 215.222 341.337,215.912 350.800,222.499 350.800 C 224.089 350.800,226.337 349.159,226.881 347.600 C 227.235 346.585,227.577 347.347,227.932 349.945 C 228.302 352.649,228.783 353.446,229.808 353.052 C 230.396 352.827,230.438 352.260,230.184 348.006 C 229.932 343.782,229.975 343.184,230.549 342.964 C 232.486 342.221,229.473 340.609,226.750 340.931 C 222.270 341.462,221.254 343.200,225.424 343.200 C 228.747 343.200,228.816 343.880,225.759 346.500 C 222.694 349.126,220.533 349.027,219.605 346.217 C 218.415 342.609,221.712 334.780,224.840 333.787 C 225.519 333.572,225.586 333.437,225.153 333.162 C 224.025 332.448,223.028 332.849,221.326 334.700 M238.698 333.578 C 233.639 334.573,232.463 335.321,233.823 336.680 C 234.191 337.048,234.331 337.568,234.165 337.952 C 233.608 339.233,233.273 343.878,233.560 346.316 C 234.142 351.250,237.556 352.605,241.774 349.575 C 245.006 347.255,244.513 346.176,240.963 347.800 C 237.123 349.556,235.840 348.975,235.815 345.466 L 235.800 343.419 238.926 342.772 C 242.349 342.064,244.463 340.706,243.012 340.149 C 242.607 339.994,241.449 340.105,240.438 340.397 C 235.678 341.768,234.713 341.295,235.594 338.024 C 236.067 336.265,235.880 336.355,240.600 335.597 C 244.714 334.937,246.954 334.068,246.367 333.361 C 245.760 332.628,243.156 332.702,238.698 333.578 M175.548 333.700 C 173.935 335.034,171.200 345.185,171.200 349.837 C 171.200 352.843,172.462 351.813,172.961 348.400 C 173.339 345.806,173.645 345.516,176.400 345.139 C 179.478 344.718,179.363 344.636,180.219 347.895 C 181.807 353.936,183.820 353.655,182.487 347.579 C 181.998 345.351,181.963 344.551,182.328 343.967 C 182.724 343.333,182.642 343.115,181.796 342.560 C 181.115 342.115,180.596 341.183,180.174 339.652 C 178.728 334.398,177.153 332.372,175.548 333.700 M196.554 336.500 C 197.171 343.137,197.306 346.800,196.934 346.800 C 196.255 346.800,194.549 344.701,191.809 340.497 C 188.543 335.484,186.751 334.262,186.154 336.639 C 185.646 338.665,185.765 349.917,186.300 350.457 C 187.315 351.478,187.718 350.120,187.915 345.019 C 188.145 339.045,188.092 339.071,191.007 343.500 C 195.625 350.518,198.675 352.206,199.433 348.163 C 200.030 344.981,198.751 335.734,197.488 334.100 C 196.576 332.919,196.289 333.655,196.554 336.500 M256.143 334.601 C 257.425 335.882,255.922 338.504,252.955 340.163 C 251.504 340.974,251.162 341.037,250.771 340.565 C 250.110 339.769,250.467 334.855,251.221 334.379 C 252.163 333.783,255.475 333.932,256.143 334.601 M208.381 336.700 C 210.296 340.833,210.073 342.000,207.371 342.000 C 205.742 342.000,205.589 341.128,206.615 337.673 C 207.314 335.320,207.655 335.132,208.381 336.700 M177.467 338.700 C 178.915 342.065,178.964 342.758,177.783 343.206 C 174.998 344.265,174.138 343.555,174.773 340.720 C 175.758 336.324,176.278 335.935,177.467 338.700 M314.309 343.674 C 314.054 344.438,308.955 347.733,304.200 350.207 C 301.780 351.466,299.606 352.650,299.370 352.839 C 298.642 353.419,290.426 357.600,290.013 357.600 C 289.467 357.600,289.985 356.405,290.543 356.378 C 290.985 356.357,292.183 355.666,299.175 351.400 C 300.978 350.300,303.296 348.934,304.326 348.364 C 305.357 347.794,307.820 346.407,309.800 345.281 C 313.425 343.219,314.600 342.801,314.309 343.674 M93.402 346.468 C 94.503 347.044,97.293 348.363,99.602 349.400 C 107.636 353.009,125.519 362.102,133.699 366.737 C 136.284 368.202,138.894 369.671,139.499 370.002 C 143.436 372.154,146.856 374.305,156.457 380.668 C 164.864 386.240,166.283 387.931,159.301 384.058 C 157.375 382.990,154.180 381.255,152.200 380.203 C 150.220 379.151,148.420 378.155,148.200 377.991 C 147.980 377.826,141.590 374.542,134.000 370.693 C 126.410 366.844,119.390 363.249,118.400 362.704 C 117.410 362.159,115.570 361.153,114.311 360.468 C 113.052 359.783,110.712 358.439,109.111 357.481 C 107.510 356.524,105.300 355.230,104.200 354.607 C 100.184 352.329,90.275 345.813,89.611 345.013 C 89.015 344.295,89.872 344.624,93.402 346.468 M272.180 373.529 C 270.782 374.738,267.998 376.754,266.557 377.600 C 265.620 378.150,263.671 379.290,262.227 380.134 C 260.782 380.978,259.600 381.805,259.600 381.971 C 259.600 382.138,258.925 382.617,258.100 383.035 C 257.275 383.454,255.610 384.453,254.400 385.256 C 250.548 387.810,236.092 395.549,235.100 395.588 C 233.976 395.633,236.674 393.382,239.400 392.002 C 239.620 391.891,240.520 391.330,241.400 390.755 C 245.454 388.107,255.713 381.920,258.600 380.383 C 260.360 379.446,263.217 377.896,264.949 376.939 C 266.680 375.983,268.273 375.200,268.487 375.200 C 268.701 375.200,269.354 374.866,269.938 374.457 C 271.267 373.527,273.021 372.801,272.180 373.529 " stroke="none" fill="#b6623f" fill-rule="evenodd"></path></g></svg>